<mxfile host="Electron" modified="2025-10-09T03:22:11.863Z" agent="Mozilla/5.0 (Windows NT 10.0; Win64; x64) AppleWebKit/537.36 (KHTML, like Gecko) draw.io/24.4.8 Chrome/124.0.6367.207 Electron/30.0.6 Safari/537.36" etag="8wD3FQ-DV4JQy7Fxyv7d" version="24.4.8" type="device">
  <diagram name="第 1 页" id="F_rhyEtw_8zC8oVCm1om">
    <mxGraphModel dx="1436" dy="900" grid="1" gridSize="10" guides="1" tooltips="1" connect="1" arrows="1" fold="1" page="1" pageScale="1" pageWidth="1169" pageHeight="827" math="0" shadow="0">
      <root>
        <mxCell id="0" />
        <mxCell id="1" parent="0" />
        <mxCell id="wDk5EvSkdMVQl-0X2oP3-1" value="" style="ellipse;whiteSpace=wrap;html=1;aspect=fixed;rotation=-90;" parent="1" vertex="1">
          <mxGeometry x="170" y="560" width="80" height="80" as="geometry" />
        </mxCell>
        <mxCell id="wDk5EvSkdMVQl-0X2oP3-2" value="" style="ellipse;whiteSpace=wrap;html=1;aspect=fixed;rotation=-90;" parent="1" vertex="1">
          <mxGeometry x="280" y="560" width="80" height="80" as="geometry" />
        </mxCell>
        <mxCell id="wDk5EvSkdMVQl-0X2oP3-3" value="" style="ellipse;whiteSpace=wrap;html=1;aspect=fixed;rotation=-90;" parent="1" vertex="1">
          <mxGeometry x="390" y="560" width="80" height="80" as="geometry" />
        </mxCell>
        <mxCell id="wDk5EvSkdMVQl-0X2oP3-5" value="" style="ellipse;whiteSpace=wrap;html=1;aspect=fixed;rotation=-90;" parent="1" vertex="1">
          <mxGeometry x="500" y="560" width="80" height="80" as="geometry" />
        </mxCell>
        <mxCell id="wDk5EvSkdMVQl-0X2oP3-6" value="" style="ellipse;whiteSpace=wrap;html=1;aspect=fixed;rotation=-90;" parent="1" vertex="1">
          <mxGeometry x="610" y="560" width="80" height="80" as="geometry" />
        </mxCell>
        <mxCell id="wDk5EvSkdMVQl-0X2oP3-7" value="" style="ellipse;whiteSpace=wrap;html=1;aspect=fixed;rotation=-90;" parent="1" vertex="1">
          <mxGeometry x="720" y="560" width="80" height="80" as="geometry" />
        </mxCell>
        <mxCell id="wDk5EvSkdMVQl-0X2oP3-8" value="" style="ellipse;whiteSpace=wrap;html=1;aspect=fixed;rotation=-90;" parent="1" vertex="1">
          <mxGeometry x="280" y="370" width="80" height="80" as="geometry" />
        </mxCell>
        <mxCell id="wDk5EvSkdMVQl-0X2oP3-9" value="" style="ellipse;whiteSpace=wrap;html=1;aspect=fixed;rotation=-90;" parent="1" vertex="1">
          <mxGeometry x="390" y="370" width="80" height="80" as="geometry" />
        </mxCell>
        <mxCell id="wDk5EvSkdMVQl-0X2oP3-10" value="" style="ellipse;whiteSpace=wrap;html=1;aspect=fixed;rotation=-90;" parent="1" vertex="1">
          <mxGeometry x="500" y="370" width="80" height="80" as="geometry" />
        </mxCell>
        <mxCell id="wDk5EvSkdMVQl-0X2oP3-11" value="" style="ellipse;whiteSpace=wrap;html=1;aspect=fixed;rotation=-90;" parent="1" vertex="1">
          <mxGeometry x="610" y="370" width="80" height="80" as="geometry" />
        </mxCell>
        <mxCell id="wDk5EvSkdMVQl-0X2oP3-12" value="" style="ellipse;whiteSpace=wrap;html=1;aspect=fixed;rotation=-90;" parent="1" vertex="1">
          <mxGeometry x="720" y="370" width="80" height="80" as="geometry" />
        </mxCell>
        <mxCell id="wDk5EvSkdMVQl-0X2oP3-13" value="" style="ellipse;whiteSpace=wrap;html=1;aspect=fixed;rotation=-90;" parent="1" vertex="1">
          <mxGeometry x="830" y="370" width="80" height="80" as="geometry" />
        </mxCell>
        <mxCell id="wDk5EvSkdMVQl-0X2oP3-14" value="" style="ellipse;whiteSpace=wrap;html=1;aspect=fixed;rotation=-90;" parent="1" vertex="1">
          <mxGeometry x="60" y="370" width="80" height="80" as="geometry" />
        </mxCell>
        <mxCell id="wDk5EvSkdMVQl-0X2oP3-32" style="rounded=0;orthogonalLoop=1;jettySize=auto;html=1;exitX=0;exitY=0.5;exitDx=0;exitDy=0;entryX=1;entryY=0.5;entryDx=0;entryDy=0;endArrow=none;endFill=0;" parent="1" source="wDk5EvSkdMVQl-0X2oP3-15" target="wDk5EvSkdMVQl-0X2oP3-6" edge="1">
          <mxGeometry relative="1" as="geometry" />
        </mxCell>
        <mxCell id="wDk5EvSkdMVQl-0X2oP3-15" value="" style="ellipse;whiteSpace=wrap;html=1;aspect=fixed;rotation=-90;" parent="1" vertex="1">
          <mxGeometry x="170" y="370" width="80" height="80" as="geometry" />
        </mxCell>
        <mxCell id="wDk5EvSkdMVQl-0X2oP3-16" value="" style="ellipse;whiteSpace=wrap;html=1;aspect=fixed;flipH=1;flipV=1;rotation=-90;" parent="1" vertex="1">
          <mxGeometry x="330" y="187" width="80" height="80" as="geometry" />
        </mxCell>
        <mxCell id="wDk5EvSkdMVQl-0X2oP3-17" value="" style="ellipse;whiteSpace=wrap;html=1;aspect=fixed;flipH=1;flipV=1;rotation=-90;" parent="1" vertex="1">
          <mxGeometry x="440" y="187" width="80" height="80" as="geometry" />
        </mxCell>
        <mxCell id="wDk5EvSkdMVQl-0X2oP3-18" value="" style="ellipse;whiteSpace=wrap;html=1;aspect=fixed;flipH=1;flipV=1;rotation=-90;" parent="1" vertex="1">
          <mxGeometry x="550" y="187" width="80" height="80" as="geometry" />
        </mxCell>
        <mxCell id="wDk5EvSkdMVQl-0X2oP3-19" value="" style="endArrow=none;html=1;rounded=0;exitX=1;exitY=0.5;exitDx=0;exitDy=0;entryX=0;entryY=0.5;entryDx=0;entryDy=0;" parent="1" source="wDk5EvSkdMVQl-0X2oP3-1" target="wDk5EvSkdMVQl-0X2oP3-14" edge="1">
          <mxGeometry width="50" height="50" relative="1" as="geometry">
            <mxPoint x="200" y="550" as="sourcePoint" />
            <mxPoint x="150" y="500" as="targetPoint" />
          </mxGeometry>
        </mxCell>
        <mxCell id="wDk5EvSkdMVQl-0X2oP3-20" value="" style="endArrow=none;html=1;rounded=0;exitX=1;exitY=0.5;exitDx=0;exitDy=0;entryX=0;entryY=0.5;entryDx=0;entryDy=0;" parent="1" source="wDk5EvSkdMVQl-0X2oP3-2" target="wDk5EvSkdMVQl-0X2oP3-14" edge="1">
          <mxGeometry width="50" height="50" relative="1" as="geometry">
            <mxPoint x="220" y="550" as="sourcePoint" />
            <mxPoint x="110" y="440" as="targetPoint" />
          </mxGeometry>
        </mxCell>
        <mxCell id="wDk5EvSkdMVQl-0X2oP3-21" value="" style="endArrow=none;html=1;rounded=0;exitX=1;exitY=0.5;exitDx=0;exitDy=0;entryX=0;entryY=0.5;entryDx=0;entryDy=0;" parent="1" source="wDk5EvSkdMVQl-0X2oP3-3" target="wDk5EvSkdMVQl-0X2oP3-14" edge="1">
          <mxGeometry width="50" height="50" relative="1" as="geometry">
            <mxPoint x="330" y="550" as="sourcePoint" />
            <mxPoint x="110" y="440" as="targetPoint" />
          </mxGeometry>
        </mxCell>
        <mxCell id="wDk5EvSkdMVQl-0X2oP3-23" value="" style="endArrow=none;html=1;rounded=0;exitX=1;exitY=0.5;exitDx=0;exitDy=0;entryX=0;entryY=0.5;entryDx=0;entryDy=0;" parent="1" source="wDk5EvSkdMVQl-0X2oP3-5" target="wDk5EvSkdMVQl-0X2oP3-14" edge="1">
          <mxGeometry width="50" height="50" relative="1" as="geometry">
            <mxPoint x="440" y="550" as="sourcePoint" />
            <mxPoint x="110" y="440" as="targetPoint" />
          </mxGeometry>
        </mxCell>
        <mxCell id="wDk5EvSkdMVQl-0X2oP3-29" value="" style="endArrow=none;html=1;rounded=0;exitX=1;exitY=0.5;exitDx=0;exitDy=0;entryX=0;entryY=0.5;entryDx=0;entryDy=0;" parent="1" source="wDk5EvSkdMVQl-0X2oP3-6" target="wDk5EvSkdMVQl-0X2oP3-14" edge="1">
          <mxGeometry width="50" height="50" relative="1" as="geometry">
            <mxPoint x="550" y="570" as="sourcePoint" />
            <mxPoint x="110" y="460" as="targetPoint" />
          </mxGeometry>
        </mxCell>
        <mxCell id="wDk5EvSkdMVQl-0X2oP3-30" value="" style="endArrow=none;html=1;rounded=0;exitX=1;exitY=0.5;exitDx=0;exitDy=0;entryX=0;entryY=0.5;entryDx=0;entryDy=0;" parent="1" source="wDk5EvSkdMVQl-0X2oP3-7" target="wDk5EvSkdMVQl-0X2oP3-14" edge="1">
          <mxGeometry width="50" height="50" relative="1" as="geometry">
            <mxPoint x="660" y="570" as="sourcePoint" />
            <mxPoint x="110" y="460" as="targetPoint" />
          </mxGeometry>
        </mxCell>
        <mxCell id="wDk5EvSkdMVQl-0X2oP3-31" value="" style="endArrow=none;html=1;rounded=0;exitX=1;exitY=0.5;exitDx=0;exitDy=0;entryX=0;entryY=0.5;entryDx=0;entryDy=0;" parent="1" source="wDk5EvSkdMVQl-0X2oP3-7" target="wDk5EvSkdMVQl-0X2oP3-15" edge="1">
          <mxGeometry width="50" height="50" relative="1" as="geometry">
            <mxPoint x="770" y="570" as="sourcePoint" />
            <mxPoint x="110" y="460" as="targetPoint" />
          </mxGeometry>
        </mxCell>
        <mxCell id="wDk5EvSkdMVQl-0X2oP3-33" value="" style="endArrow=none;html=1;rounded=0;exitX=1;exitY=0.5;exitDx=0;exitDy=0;entryX=0;entryY=0.5;entryDx=0;entryDy=0;" parent="1" source="wDk5EvSkdMVQl-0X2oP3-6" target="wDk5EvSkdMVQl-0X2oP3-15" edge="1">
          <mxGeometry width="50" height="50" relative="1" as="geometry">
            <mxPoint x="770" y="570" as="sourcePoint" />
            <mxPoint x="220" y="460" as="targetPoint" />
          </mxGeometry>
        </mxCell>
        <mxCell id="wDk5EvSkdMVQl-0X2oP3-34" value="" style="endArrow=none;html=1;rounded=0;exitX=1;exitY=0.5;exitDx=0;exitDy=0;entryX=0;entryY=0.5;entryDx=0;entryDy=0;" parent="1" source="wDk5EvSkdMVQl-0X2oP3-5" target="wDk5EvSkdMVQl-0X2oP3-15" edge="1">
          <mxGeometry width="50" height="50" relative="1" as="geometry">
            <mxPoint x="660" y="570" as="sourcePoint" />
            <mxPoint x="220" y="460" as="targetPoint" />
          </mxGeometry>
        </mxCell>
        <mxCell id="wDk5EvSkdMVQl-0X2oP3-35" value="" style="endArrow=none;html=1;rounded=0;exitX=1;exitY=0.5;exitDx=0;exitDy=0;entryX=0;entryY=0.5;entryDx=0;entryDy=0;" parent="1" source="wDk5EvSkdMVQl-0X2oP3-3" target="wDk5EvSkdMVQl-0X2oP3-15" edge="1">
          <mxGeometry width="50" height="50" relative="1" as="geometry">
            <mxPoint x="550" y="570" as="sourcePoint" />
            <mxPoint x="220" y="460" as="targetPoint" />
          </mxGeometry>
        </mxCell>
        <mxCell id="wDk5EvSkdMVQl-0X2oP3-36" value="" style="endArrow=none;html=1;rounded=0;exitX=1;exitY=0.5;exitDx=0;exitDy=0;entryX=0;entryY=0.5;entryDx=0;entryDy=0;" parent="1" source="wDk5EvSkdMVQl-0X2oP3-2" target="wDk5EvSkdMVQl-0X2oP3-15" edge="1">
          <mxGeometry width="50" height="50" relative="1" as="geometry">
            <mxPoint x="440" y="570" as="sourcePoint" />
            <mxPoint x="220" y="460" as="targetPoint" />
          </mxGeometry>
        </mxCell>
        <mxCell id="wDk5EvSkdMVQl-0X2oP3-37" value="" style="endArrow=none;html=1;rounded=0;entryX=0;entryY=0.5;entryDx=0;entryDy=0;" parent="1" source="wDk5EvSkdMVQl-0X2oP3-1" target="wDk5EvSkdMVQl-0X2oP3-15" edge="1">
          <mxGeometry width="50" height="50" relative="1" as="geometry">
            <mxPoint x="330" y="570" as="sourcePoint" />
            <mxPoint x="220" y="460" as="targetPoint" />
          </mxGeometry>
        </mxCell>
        <mxCell id="wDk5EvSkdMVQl-0X2oP3-38" value="" style="endArrow=none;html=1;rounded=0;entryX=0;entryY=0.5;entryDx=0;entryDy=0;exitX=1;exitY=0.5;exitDx=0;exitDy=0;" parent="1" source="wDk5EvSkdMVQl-0X2oP3-1" target="wDk5EvSkdMVQl-0X2oP3-8" edge="1">
          <mxGeometry width="50" height="50" relative="1" as="geometry">
            <mxPoint x="220" y="570" as="sourcePoint" />
            <mxPoint x="220" y="460" as="targetPoint" />
          </mxGeometry>
        </mxCell>
        <mxCell id="wDk5EvSkdMVQl-0X2oP3-39" value="" style="endArrow=none;html=1;rounded=0;entryX=0;entryY=0.5;entryDx=0;entryDy=0;exitX=1;exitY=0.5;exitDx=0;exitDy=0;" parent="1" source="wDk5EvSkdMVQl-0X2oP3-2" target="wDk5EvSkdMVQl-0X2oP3-8" edge="1">
          <mxGeometry width="50" height="50" relative="1" as="geometry">
            <mxPoint x="220" y="570" as="sourcePoint" />
            <mxPoint x="330" y="460" as="targetPoint" />
          </mxGeometry>
        </mxCell>
        <mxCell id="wDk5EvSkdMVQl-0X2oP3-40" value="" style="endArrow=none;html=1;rounded=0;entryX=0;entryY=0.5;entryDx=0;entryDy=0;exitX=1;exitY=0.5;exitDx=0;exitDy=0;" parent="1" source="wDk5EvSkdMVQl-0X2oP3-3" target="wDk5EvSkdMVQl-0X2oP3-8" edge="1">
          <mxGeometry width="50" height="50" relative="1" as="geometry">
            <mxPoint x="330" y="570" as="sourcePoint" />
            <mxPoint x="330" y="460" as="targetPoint" />
          </mxGeometry>
        </mxCell>
        <mxCell id="wDk5EvSkdMVQl-0X2oP3-41" value="" style="endArrow=none;html=1;rounded=0;entryX=0;entryY=0.5;entryDx=0;entryDy=0;exitX=1;exitY=0.5;exitDx=0;exitDy=0;" parent="1" source="wDk5EvSkdMVQl-0X2oP3-5" target="wDk5EvSkdMVQl-0X2oP3-8" edge="1">
          <mxGeometry width="50" height="50" relative="1" as="geometry">
            <mxPoint x="440" y="570" as="sourcePoint" />
            <mxPoint x="330" y="460" as="targetPoint" />
          </mxGeometry>
        </mxCell>
        <mxCell id="wDk5EvSkdMVQl-0X2oP3-42" value="" style="endArrow=none;html=1;rounded=0;entryX=0;entryY=0.5;entryDx=0;entryDy=0;exitX=1;exitY=0.5;exitDx=0;exitDy=0;" parent="1" source="wDk5EvSkdMVQl-0X2oP3-6" target="wDk5EvSkdMVQl-0X2oP3-8" edge="1">
          <mxGeometry width="50" height="50" relative="1" as="geometry">
            <mxPoint x="550" y="570" as="sourcePoint" />
            <mxPoint x="330" y="460" as="targetPoint" />
          </mxGeometry>
        </mxCell>
        <mxCell id="wDk5EvSkdMVQl-0X2oP3-43" value="" style="endArrow=none;html=1;rounded=0;entryX=0;entryY=0.5;entryDx=0;entryDy=0;exitX=1;exitY=0.5;exitDx=0;exitDy=0;" parent="1" source="wDk5EvSkdMVQl-0X2oP3-7" target="wDk5EvSkdMVQl-0X2oP3-8" edge="1">
          <mxGeometry width="50" height="50" relative="1" as="geometry">
            <mxPoint x="660" y="570" as="sourcePoint" />
            <mxPoint x="330" y="460" as="targetPoint" />
          </mxGeometry>
        </mxCell>
        <mxCell id="wDk5EvSkdMVQl-0X2oP3-44" value="" style="endArrow=none;html=1;rounded=0;entryX=0;entryY=0.5;entryDx=0;entryDy=0;exitX=1;exitY=0.5;exitDx=0;exitDy=0;" parent="1" source="wDk5EvSkdMVQl-0X2oP3-7" target="wDk5EvSkdMVQl-0X2oP3-9" edge="1">
          <mxGeometry width="50" height="50" relative="1" as="geometry">
            <mxPoint x="770" y="570" as="sourcePoint" />
            <mxPoint x="330" y="460" as="targetPoint" />
          </mxGeometry>
        </mxCell>
        <mxCell id="wDk5EvSkdMVQl-0X2oP3-45" value="" style="endArrow=none;html=1;rounded=0;entryX=0;entryY=0.5;entryDx=0;entryDy=0;exitX=1;exitY=0.5;exitDx=0;exitDy=0;" parent="1" source="wDk5EvSkdMVQl-0X2oP3-6" target="wDk5EvSkdMVQl-0X2oP3-9" edge="1">
          <mxGeometry width="50" height="50" relative="1" as="geometry">
            <mxPoint x="770" y="570" as="sourcePoint" />
            <mxPoint x="440" y="460" as="targetPoint" />
          </mxGeometry>
        </mxCell>
        <mxCell id="wDk5EvSkdMVQl-0X2oP3-46" value="" style="endArrow=none;html=1;rounded=0;entryX=0;entryY=0.5;entryDx=0;entryDy=0;exitX=1;exitY=0.5;exitDx=0;exitDy=0;" parent="1" source="wDk5EvSkdMVQl-0X2oP3-5" target="wDk5EvSkdMVQl-0X2oP3-9" edge="1">
          <mxGeometry width="50" height="50" relative="1" as="geometry">
            <mxPoint x="660" y="570" as="sourcePoint" />
            <mxPoint x="440" y="460" as="targetPoint" />
          </mxGeometry>
        </mxCell>
        <mxCell id="wDk5EvSkdMVQl-0X2oP3-47" value="" style="endArrow=none;html=1;rounded=0;entryX=0;entryY=0.5;entryDx=0;entryDy=0;exitX=1;exitY=0.5;exitDx=0;exitDy=0;" parent="1" source="wDk5EvSkdMVQl-0X2oP3-3" target="wDk5EvSkdMVQl-0X2oP3-9" edge="1">
          <mxGeometry width="50" height="50" relative="1" as="geometry">
            <mxPoint x="550" y="570" as="sourcePoint" />
            <mxPoint x="440" y="460" as="targetPoint" />
          </mxGeometry>
        </mxCell>
        <mxCell id="wDk5EvSkdMVQl-0X2oP3-48" value="" style="endArrow=none;html=1;rounded=0;entryX=0;entryY=0.5;entryDx=0;entryDy=0;exitX=1;exitY=0.5;exitDx=0;exitDy=0;" parent="1" source="wDk5EvSkdMVQl-0X2oP3-2" target="wDk5EvSkdMVQl-0X2oP3-9" edge="1">
          <mxGeometry width="50" height="50" relative="1" as="geometry">
            <mxPoint x="440" y="570" as="sourcePoint" />
            <mxPoint x="440" y="460" as="targetPoint" />
          </mxGeometry>
        </mxCell>
        <mxCell id="wDk5EvSkdMVQl-0X2oP3-49" value="" style="endArrow=none;html=1;rounded=0;entryX=0;entryY=0.5;entryDx=0;entryDy=0;exitX=1;exitY=0.5;exitDx=0;exitDy=0;" parent="1" source="wDk5EvSkdMVQl-0X2oP3-1" target="wDk5EvSkdMVQl-0X2oP3-9" edge="1">
          <mxGeometry width="50" height="50" relative="1" as="geometry">
            <mxPoint x="330" y="570" as="sourcePoint" />
            <mxPoint x="440" y="460" as="targetPoint" />
          </mxGeometry>
        </mxCell>
        <mxCell id="wDk5EvSkdMVQl-0X2oP3-50" value="" style="endArrow=none;html=1;rounded=0;entryX=0;entryY=0.5;entryDx=0;entryDy=0;exitX=1;exitY=0.5;exitDx=0;exitDy=0;" parent="1" source="wDk5EvSkdMVQl-0X2oP3-1" target="wDk5EvSkdMVQl-0X2oP3-10" edge="1">
          <mxGeometry width="50" height="50" relative="1" as="geometry">
            <mxPoint x="220" y="570" as="sourcePoint" />
            <mxPoint x="440" y="460" as="targetPoint" />
          </mxGeometry>
        </mxCell>
        <mxCell id="wDk5EvSkdMVQl-0X2oP3-51" value="" style="endArrow=none;html=1;rounded=0;entryX=0;entryY=0.5;entryDx=0;entryDy=0;exitX=1;exitY=0.5;exitDx=0;exitDy=0;" parent="1" source="wDk5EvSkdMVQl-0X2oP3-2" target="wDk5EvSkdMVQl-0X2oP3-10" edge="1">
          <mxGeometry width="50" height="50" relative="1" as="geometry">
            <mxPoint x="220" y="570" as="sourcePoint" />
            <mxPoint x="550" y="460" as="targetPoint" />
          </mxGeometry>
        </mxCell>
        <mxCell id="wDk5EvSkdMVQl-0X2oP3-52" value="" style="endArrow=none;html=1;rounded=0;entryX=0;entryY=0.5;entryDx=0;entryDy=0;exitX=1;exitY=0.5;exitDx=0;exitDy=0;" parent="1" source="wDk5EvSkdMVQl-0X2oP3-3" target="wDk5EvSkdMVQl-0X2oP3-10" edge="1">
          <mxGeometry width="50" height="50" relative="1" as="geometry">
            <mxPoint x="330" y="570" as="sourcePoint" />
            <mxPoint x="550" y="460" as="targetPoint" />
          </mxGeometry>
        </mxCell>
        <mxCell id="wDk5EvSkdMVQl-0X2oP3-53" value="" style="endArrow=none;html=1;rounded=0;entryX=0;entryY=0.5;entryDx=0;entryDy=0;exitX=1;exitY=0.5;exitDx=0;exitDy=0;" parent="1" source="wDk5EvSkdMVQl-0X2oP3-5" target="wDk5EvSkdMVQl-0X2oP3-10" edge="1">
          <mxGeometry width="50" height="50" relative="1" as="geometry">
            <mxPoint x="440" y="570" as="sourcePoint" />
            <mxPoint x="550" y="460" as="targetPoint" />
          </mxGeometry>
        </mxCell>
        <mxCell id="wDk5EvSkdMVQl-0X2oP3-54" value="" style="endArrow=none;html=1;rounded=0;entryX=0;entryY=0.5;entryDx=0;entryDy=0;exitX=1;exitY=0.5;exitDx=0;exitDy=0;" parent="1" source="wDk5EvSkdMVQl-0X2oP3-6" target="wDk5EvSkdMVQl-0X2oP3-10" edge="1">
          <mxGeometry width="50" height="50" relative="1" as="geometry">
            <mxPoint x="550" y="570" as="sourcePoint" />
            <mxPoint x="550" y="460" as="targetPoint" />
          </mxGeometry>
        </mxCell>
        <mxCell id="wDk5EvSkdMVQl-0X2oP3-55" value="" style="endArrow=none;html=1;rounded=0;entryX=0;entryY=0.5;entryDx=0;entryDy=0;exitX=1;exitY=0.5;exitDx=0;exitDy=0;" parent="1" source="wDk5EvSkdMVQl-0X2oP3-7" target="wDk5EvSkdMVQl-0X2oP3-10" edge="1">
          <mxGeometry width="50" height="50" relative="1" as="geometry">
            <mxPoint x="660" y="570" as="sourcePoint" />
            <mxPoint x="550" y="460" as="targetPoint" />
          </mxGeometry>
        </mxCell>
        <mxCell id="wDk5EvSkdMVQl-0X2oP3-56" value="" style="endArrow=none;html=1;rounded=0;entryX=0;entryY=0.5;entryDx=0;entryDy=0;exitX=1;exitY=0.5;exitDx=0;exitDy=0;" parent="1" source="wDk5EvSkdMVQl-0X2oP3-7" target="wDk5EvSkdMVQl-0X2oP3-11" edge="1">
          <mxGeometry width="50" height="50" relative="1" as="geometry">
            <mxPoint x="770" y="570" as="sourcePoint" />
            <mxPoint x="550" y="460" as="targetPoint" />
          </mxGeometry>
        </mxCell>
        <mxCell id="wDk5EvSkdMVQl-0X2oP3-57" value="" style="endArrow=none;html=1;rounded=0;entryX=0;entryY=0.5;entryDx=0;entryDy=0;exitX=1;exitY=0.5;exitDx=0;exitDy=0;" parent="1" source="wDk5EvSkdMVQl-0X2oP3-6" target="wDk5EvSkdMVQl-0X2oP3-11" edge="1">
          <mxGeometry width="50" height="50" relative="1" as="geometry">
            <mxPoint x="770" y="570" as="sourcePoint" />
            <mxPoint x="660" y="460" as="targetPoint" />
          </mxGeometry>
        </mxCell>
        <mxCell id="wDk5EvSkdMVQl-0X2oP3-58" value="" style="endArrow=none;html=1;rounded=0;entryX=0;entryY=0.5;entryDx=0;entryDy=0;exitX=1;exitY=0.5;exitDx=0;exitDy=0;" parent="1" source="wDk5EvSkdMVQl-0X2oP3-5" target="wDk5EvSkdMVQl-0X2oP3-11" edge="1">
          <mxGeometry width="50" height="50" relative="1" as="geometry">
            <mxPoint x="660" y="570" as="sourcePoint" />
            <mxPoint x="660" y="460" as="targetPoint" />
          </mxGeometry>
        </mxCell>
        <mxCell id="wDk5EvSkdMVQl-0X2oP3-59" value="" style="endArrow=none;html=1;rounded=0;entryX=0;entryY=0.5;entryDx=0;entryDy=0;exitX=1;exitY=0.5;exitDx=0;exitDy=0;" parent="1" source="wDk5EvSkdMVQl-0X2oP3-3" target="wDk5EvSkdMVQl-0X2oP3-11" edge="1">
          <mxGeometry width="50" height="50" relative="1" as="geometry">
            <mxPoint x="550" y="570" as="sourcePoint" />
            <mxPoint x="660" y="460" as="targetPoint" />
          </mxGeometry>
        </mxCell>
        <mxCell id="wDk5EvSkdMVQl-0X2oP3-60" value="" style="endArrow=none;html=1;rounded=0;entryX=0;entryY=0.5;entryDx=0;entryDy=0;exitX=1;exitY=0.5;exitDx=0;exitDy=0;" parent="1" source="wDk5EvSkdMVQl-0X2oP3-2" target="wDk5EvSkdMVQl-0X2oP3-11" edge="1">
          <mxGeometry width="50" height="50" relative="1" as="geometry">
            <mxPoint x="440" y="570" as="sourcePoint" />
            <mxPoint x="660" y="460" as="targetPoint" />
          </mxGeometry>
        </mxCell>
        <mxCell id="wDk5EvSkdMVQl-0X2oP3-61" value="" style="endArrow=none;html=1;rounded=0;entryX=0;entryY=0.5;entryDx=0;entryDy=0;exitX=1;exitY=0.5;exitDx=0;exitDy=0;" parent="1" source="wDk5EvSkdMVQl-0X2oP3-1" target="wDk5EvSkdMVQl-0X2oP3-11" edge="1">
          <mxGeometry width="50" height="50" relative="1" as="geometry">
            <mxPoint x="330" y="570" as="sourcePoint" />
            <mxPoint x="660" y="460" as="targetPoint" />
          </mxGeometry>
        </mxCell>
        <mxCell id="wDk5EvSkdMVQl-0X2oP3-62" value="" style="endArrow=none;html=1;rounded=0;entryX=0;entryY=0.5;entryDx=0;entryDy=0;exitX=1;exitY=0.5;exitDx=0;exitDy=0;" parent="1" source="wDk5EvSkdMVQl-0X2oP3-1" target="wDk5EvSkdMVQl-0X2oP3-12" edge="1">
          <mxGeometry width="50" height="50" relative="1" as="geometry">
            <mxPoint x="220" y="570" as="sourcePoint" />
            <mxPoint x="660" y="460" as="targetPoint" />
          </mxGeometry>
        </mxCell>
        <mxCell id="wDk5EvSkdMVQl-0X2oP3-63" value="" style="endArrow=none;html=1;rounded=0;entryX=0;entryY=0.5;entryDx=0;entryDy=0;exitX=1;exitY=0.5;exitDx=0;exitDy=0;" parent="1" source="wDk5EvSkdMVQl-0X2oP3-2" target="wDk5EvSkdMVQl-0X2oP3-12" edge="1">
          <mxGeometry width="50" height="50" relative="1" as="geometry">
            <mxPoint x="220" y="570" as="sourcePoint" />
            <mxPoint x="770" y="460" as="targetPoint" />
          </mxGeometry>
        </mxCell>
        <mxCell id="wDk5EvSkdMVQl-0X2oP3-64" value="" style="endArrow=none;html=1;rounded=0;entryX=0;entryY=0.5;entryDx=0;entryDy=0;exitX=1;exitY=0.5;exitDx=0;exitDy=0;" parent="1" source="wDk5EvSkdMVQl-0X2oP3-3" target="wDk5EvSkdMVQl-0X2oP3-12" edge="1">
          <mxGeometry width="50" height="50" relative="1" as="geometry">
            <mxPoint x="330" y="570" as="sourcePoint" />
            <mxPoint x="770" y="460" as="targetPoint" />
          </mxGeometry>
        </mxCell>
        <mxCell id="wDk5EvSkdMVQl-0X2oP3-65" value="" style="endArrow=none;html=1;rounded=0;entryX=0;entryY=0.5;entryDx=0;entryDy=0;exitX=1;exitY=0.5;exitDx=0;exitDy=0;" parent="1" source="wDk5EvSkdMVQl-0X2oP3-5" target="wDk5EvSkdMVQl-0X2oP3-12" edge="1">
          <mxGeometry width="50" height="50" relative="1" as="geometry">
            <mxPoint x="440" y="570" as="sourcePoint" />
            <mxPoint x="770" y="460" as="targetPoint" />
          </mxGeometry>
        </mxCell>
        <mxCell id="wDk5EvSkdMVQl-0X2oP3-66" value="" style="endArrow=none;html=1;rounded=0;entryX=0;entryY=0.5;entryDx=0;entryDy=0;exitX=1;exitY=0.5;exitDx=0;exitDy=0;" parent="1" source="wDk5EvSkdMVQl-0X2oP3-6" target="wDk5EvSkdMVQl-0X2oP3-12" edge="1">
          <mxGeometry width="50" height="50" relative="1" as="geometry">
            <mxPoint x="550" y="570" as="sourcePoint" />
            <mxPoint x="770" y="460" as="targetPoint" />
          </mxGeometry>
        </mxCell>
        <mxCell id="wDk5EvSkdMVQl-0X2oP3-67" value="" style="endArrow=none;html=1;rounded=0;entryX=0;entryY=0.5;entryDx=0;entryDy=0;exitX=1;exitY=0.5;exitDx=0;exitDy=0;" parent="1" source="wDk5EvSkdMVQl-0X2oP3-7" target="wDk5EvSkdMVQl-0X2oP3-12" edge="1">
          <mxGeometry width="50" height="50" relative="1" as="geometry">
            <mxPoint x="660" y="570" as="sourcePoint" />
            <mxPoint x="770" y="460" as="targetPoint" />
          </mxGeometry>
        </mxCell>
        <mxCell id="wDk5EvSkdMVQl-0X2oP3-68" value="" style="endArrow=none;html=1;rounded=0;entryX=0;entryY=0.5;entryDx=0;entryDy=0;exitX=1;exitY=0.5;exitDx=0;exitDy=0;" parent="1" source="wDk5EvSkdMVQl-0X2oP3-7" target="wDk5EvSkdMVQl-0X2oP3-13" edge="1">
          <mxGeometry width="50" height="50" relative="1" as="geometry">
            <mxPoint x="770" y="559" as="sourcePoint" />
            <mxPoint x="770" y="460" as="targetPoint" />
          </mxGeometry>
        </mxCell>
        <mxCell id="wDk5EvSkdMVQl-0X2oP3-69" value="" style="endArrow=none;html=1;rounded=0;entryX=0;entryY=0.5;entryDx=0;entryDy=0;exitX=1;exitY=0.5;exitDx=0;exitDy=0;" parent="1" source="wDk5EvSkdMVQl-0X2oP3-6" target="wDk5EvSkdMVQl-0X2oP3-13" edge="1">
          <mxGeometry width="50" height="50" relative="1" as="geometry">
            <mxPoint x="890" y="599" as="sourcePoint" />
            <mxPoint x="880" y="460" as="targetPoint" />
          </mxGeometry>
        </mxCell>
        <mxCell id="wDk5EvSkdMVQl-0X2oP3-70" value="" style="endArrow=none;html=1;rounded=0;entryX=0;entryY=0.5;entryDx=0;entryDy=0;exitX=1;exitY=0.5;exitDx=0;exitDy=0;" parent="1" source="wDk5EvSkdMVQl-0X2oP3-5" target="wDk5EvSkdMVQl-0X2oP3-13" edge="1">
          <mxGeometry width="50" height="50" relative="1" as="geometry">
            <mxPoint x="440" y="570" as="sourcePoint" />
            <mxPoint x="770" y="460" as="targetPoint" />
          </mxGeometry>
        </mxCell>
        <mxCell id="wDk5EvSkdMVQl-0X2oP3-71" value="" style="endArrow=none;html=1;rounded=0;entryX=0;entryY=0.5;entryDx=0;entryDy=0;exitX=1;exitY=0.5;exitDx=0;exitDy=0;" parent="1" source="wDk5EvSkdMVQl-0X2oP3-3" target="wDk5EvSkdMVQl-0X2oP3-13" edge="1">
          <mxGeometry width="50" height="50" relative="1" as="geometry">
            <mxPoint x="550" y="570" as="sourcePoint" />
            <mxPoint x="880" y="460" as="targetPoint" />
          </mxGeometry>
        </mxCell>
        <mxCell id="wDk5EvSkdMVQl-0X2oP3-72" value="" style="endArrow=none;html=1;rounded=0;entryX=0;entryY=0.5;entryDx=0;entryDy=0;exitX=1;exitY=0.5;exitDx=0;exitDy=0;" parent="1" source="wDk5EvSkdMVQl-0X2oP3-2" target="wDk5EvSkdMVQl-0X2oP3-13" edge="1">
          <mxGeometry width="50" height="50" relative="1" as="geometry">
            <mxPoint x="440" y="570" as="sourcePoint" />
            <mxPoint x="880" y="460" as="targetPoint" />
          </mxGeometry>
        </mxCell>
        <mxCell id="wDk5EvSkdMVQl-0X2oP3-73" value="" style="endArrow=none;html=1;rounded=0;entryX=0;entryY=0.5;entryDx=0;entryDy=0;exitX=1;exitY=0.5;exitDx=0;exitDy=0;" parent="1" source="wDk5EvSkdMVQl-0X2oP3-1" target="wDk5EvSkdMVQl-0X2oP3-13" edge="1">
          <mxGeometry width="50" height="50" relative="1" as="geometry">
            <mxPoint x="330" y="570" as="sourcePoint" />
            <mxPoint x="880" y="460" as="targetPoint" />
          </mxGeometry>
        </mxCell>
        <mxCell id="wDk5EvSkdMVQl-0X2oP3-74" value="" style="endArrow=none;html=1;rounded=0;exitX=1;exitY=0.5;exitDx=0;exitDy=0;entryX=0;entryY=0.5;entryDx=0;entryDy=0;" parent="1" source="wDk5EvSkdMVQl-0X2oP3-14" target="wDk5EvSkdMVQl-0X2oP3-16" edge="1">
          <mxGeometry width="50" height="50" relative="1" as="geometry">
            <mxPoint x="220" y="570" as="sourcePoint" />
            <mxPoint x="110" y="460" as="targetPoint" />
          </mxGeometry>
        </mxCell>
        <mxCell id="wDk5EvSkdMVQl-0X2oP3-75" value="" style="endArrow=none;html=1;rounded=0;exitX=1;exitY=0.5;exitDx=0;exitDy=0;entryX=0;entryY=0.5;entryDx=0;entryDy=0;" parent="1" source="wDk5EvSkdMVQl-0X2oP3-15" target="wDk5EvSkdMVQl-0X2oP3-16" edge="1">
          <mxGeometry width="50" height="50" relative="1" as="geometry">
            <mxPoint x="110" y="380" as="sourcePoint" />
            <mxPoint x="380" y="277" as="targetPoint" />
          </mxGeometry>
        </mxCell>
        <mxCell id="wDk5EvSkdMVQl-0X2oP3-76" value="" style="endArrow=none;html=1;rounded=0;exitX=1;exitY=0.5;exitDx=0;exitDy=0;entryX=0;entryY=0.5;entryDx=0;entryDy=0;" parent="1" source="wDk5EvSkdMVQl-0X2oP3-8" target="wDk5EvSkdMVQl-0X2oP3-16" edge="1">
          <mxGeometry width="50" height="50" relative="1" as="geometry">
            <mxPoint x="220" y="380" as="sourcePoint" />
            <mxPoint x="380" y="277" as="targetPoint" />
          </mxGeometry>
        </mxCell>
        <mxCell id="wDk5EvSkdMVQl-0X2oP3-77" value="" style="endArrow=none;html=1;rounded=0;exitX=1;exitY=0.5;exitDx=0;exitDy=0;entryX=0;entryY=0.5;entryDx=0;entryDy=0;" parent="1" source="wDk5EvSkdMVQl-0X2oP3-9" target="wDk5EvSkdMVQl-0X2oP3-16" edge="1">
          <mxGeometry width="50" height="50" relative="1" as="geometry">
            <mxPoint x="330" y="380" as="sourcePoint" />
            <mxPoint x="380" y="277" as="targetPoint" />
          </mxGeometry>
        </mxCell>
        <mxCell id="wDk5EvSkdMVQl-0X2oP3-78" value="" style="endArrow=none;html=1;rounded=0;exitX=1;exitY=0.5;exitDx=0;exitDy=0;entryX=0;entryY=0.5;entryDx=0;entryDy=0;" parent="1" source="wDk5EvSkdMVQl-0X2oP3-10" target="wDk5EvSkdMVQl-0X2oP3-16" edge="1">
          <mxGeometry width="50" height="50" relative="1" as="geometry">
            <mxPoint x="440" y="380" as="sourcePoint" />
            <mxPoint x="380" y="277" as="targetPoint" />
          </mxGeometry>
        </mxCell>
        <mxCell id="wDk5EvSkdMVQl-0X2oP3-79" value="" style="endArrow=none;html=1;rounded=0;exitX=1;exitY=0.5;exitDx=0;exitDy=0;entryX=0;entryY=0.5;entryDx=0;entryDy=0;" parent="1" source="wDk5EvSkdMVQl-0X2oP3-11" target="wDk5EvSkdMVQl-0X2oP3-16" edge="1">
          <mxGeometry width="50" height="50" relative="1" as="geometry">
            <mxPoint x="550" y="380" as="sourcePoint" />
            <mxPoint x="380" y="277" as="targetPoint" />
          </mxGeometry>
        </mxCell>
        <mxCell id="wDk5EvSkdMVQl-0X2oP3-80" value="" style="endArrow=none;html=1;rounded=0;exitX=1;exitY=0.5;exitDx=0;exitDy=0;" parent="1" source="wDk5EvSkdMVQl-0X2oP3-12" edge="1">
          <mxGeometry width="50" height="50" relative="1" as="geometry">
            <mxPoint x="760" y="349" as="sourcePoint" />
            <mxPoint x="370" y="269" as="targetPoint" />
          </mxGeometry>
        </mxCell>
        <mxCell id="wDk5EvSkdMVQl-0X2oP3-82" value="" style="endArrow=none;html=1;rounded=0;exitX=1;exitY=0.5;exitDx=0;exitDy=0;entryX=0;entryY=0.5;entryDx=0;entryDy=0;" parent="1" source="wDk5EvSkdMVQl-0X2oP3-13" target="wDk5EvSkdMVQl-0X2oP3-16" edge="1">
          <mxGeometry width="50" height="50" relative="1" as="geometry">
            <mxPoint x="770" y="380" as="sourcePoint" />
            <mxPoint x="380" y="279" as="targetPoint" />
          </mxGeometry>
        </mxCell>
        <mxCell id="wDk5EvSkdMVQl-0X2oP3-83" value="" style="endArrow=none;html=1;rounded=0;exitX=1;exitY=0.5;exitDx=0;exitDy=0;entryX=0;entryY=0.5;entryDx=0;entryDy=0;" parent="1" source="wDk5EvSkdMVQl-0X2oP3-14" target="wDk5EvSkdMVQl-0X2oP3-17" edge="1">
          <mxGeometry width="50" height="50" relative="1" as="geometry">
            <mxPoint x="110" y="380" as="sourcePoint" />
            <mxPoint x="380" y="277" as="targetPoint" />
          </mxGeometry>
        </mxCell>
        <mxCell id="wDk5EvSkdMVQl-0X2oP3-84" value="" style="endArrow=none;html=1;rounded=0;exitX=1;exitY=0.5;exitDx=0;exitDy=0;entryX=0;entryY=0.5;entryDx=0;entryDy=0;" parent="1" source="wDk5EvSkdMVQl-0X2oP3-15" target="wDk5EvSkdMVQl-0X2oP3-17" edge="1">
          <mxGeometry width="50" height="50" relative="1" as="geometry">
            <mxPoint x="110" y="380" as="sourcePoint" />
            <mxPoint x="490" y="277" as="targetPoint" />
          </mxGeometry>
        </mxCell>
        <mxCell id="wDk5EvSkdMVQl-0X2oP3-85" value="" style="endArrow=none;html=1;rounded=0;exitX=1;exitY=0.5;exitDx=0;exitDy=0;entryX=0;entryY=0.5;entryDx=0;entryDy=0;" parent="1" source="wDk5EvSkdMVQl-0X2oP3-8" target="wDk5EvSkdMVQl-0X2oP3-17" edge="1">
          <mxGeometry width="50" height="50" relative="1" as="geometry">
            <mxPoint x="220" y="380" as="sourcePoint" />
            <mxPoint x="490" y="277" as="targetPoint" />
          </mxGeometry>
        </mxCell>
        <mxCell id="wDk5EvSkdMVQl-0X2oP3-86" value="" style="endArrow=none;html=1;rounded=0;exitX=1;exitY=0.5;exitDx=0;exitDy=0;entryX=0;entryY=0.5;entryDx=0;entryDy=0;" parent="1" source="wDk5EvSkdMVQl-0X2oP3-9" target="wDk5EvSkdMVQl-0X2oP3-17" edge="1">
          <mxGeometry width="50" height="50" relative="1" as="geometry">
            <mxPoint x="330" y="380" as="sourcePoint" />
            <mxPoint x="490" y="277" as="targetPoint" />
          </mxGeometry>
        </mxCell>
        <mxCell id="wDk5EvSkdMVQl-0X2oP3-87" value="" style="endArrow=none;html=1;rounded=0;exitX=1;exitY=0.5;exitDx=0;exitDy=0;entryX=0;entryY=0.5;entryDx=0;entryDy=0;" parent="1" source="wDk5EvSkdMVQl-0X2oP3-10" target="wDk5EvSkdMVQl-0X2oP3-17" edge="1">
          <mxGeometry width="50" height="50" relative="1" as="geometry">
            <mxPoint x="440" y="380" as="sourcePoint" />
            <mxPoint x="490" y="277" as="targetPoint" />
          </mxGeometry>
        </mxCell>
        <mxCell id="wDk5EvSkdMVQl-0X2oP3-88" value="" style="endArrow=none;html=1;rounded=0;exitX=1;exitY=0.5;exitDx=0;exitDy=0;entryX=0;entryY=0.5;entryDx=0;entryDy=0;" parent="1" source="wDk5EvSkdMVQl-0X2oP3-11" target="wDk5EvSkdMVQl-0X2oP3-17" edge="1">
          <mxGeometry width="50" height="50" relative="1" as="geometry">
            <mxPoint x="550" y="380" as="sourcePoint" />
            <mxPoint x="490" y="277" as="targetPoint" />
          </mxGeometry>
        </mxCell>
        <mxCell id="wDk5EvSkdMVQl-0X2oP3-89" value="" style="endArrow=none;html=1;rounded=0;exitX=1;exitY=0.5;exitDx=0;exitDy=0;entryX=0;entryY=0.5;entryDx=0;entryDy=0;" parent="1" source="wDk5EvSkdMVQl-0X2oP3-12" target="wDk5EvSkdMVQl-0X2oP3-17" edge="1">
          <mxGeometry width="50" height="50" relative="1" as="geometry">
            <mxPoint x="660" y="380" as="sourcePoint" />
            <mxPoint x="490" y="277" as="targetPoint" />
          </mxGeometry>
        </mxCell>
        <mxCell id="wDk5EvSkdMVQl-0X2oP3-90" value="" style="endArrow=none;html=1;rounded=0;exitX=1;exitY=0.5;exitDx=0;exitDy=0;entryX=0;entryY=0.5;entryDx=0;entryDy=0;" parent="1" source="wDk5EvSkdMVQl-0X2oP3-13" target="wDk5EvSkdMVQl-0X2oP3-17" edge="1">
          <mxGeometry width="50" height="50" relative="1" as="geometry">
            <mxPoint x="770" y="380" as="sourcePoint" />
            <mxPoint x="490" y="277" as="targetPoint" />
          </mxGeometry>
        </mxCell>
        <mxCell id="wDk5EvSkdMVQl-0X2oP3-91" value="" style="endArrow=none;html=1;rounded=0;exitX=1;exitY=0.5;exitDx=0;exitDy=0;entryX=0;entryY=0.5;entryDx=0;entryDy=0;" parent="1" source="wDk5EvSkdMVQl-0X2oP3-14" target="wDk5EvSkdMVQl-0X2oP3-18" edge="1">
          <mxGeometry width="50" height="50" relative="1" as="geometry">
            <mxPoint x="110" y="380" as="sourcePoint" />
            <mxPoint x="380" y="277" as="targetPoint" />
          </mxGeometry>
        </mxCell>
        <mxCell id="wDk5EvSkdMVQl-0X2oP3-92" value="" style="endArrow=none;html=1;rounded=0;exitX=1;exitY=0.5;exitDx=0;exitDy=0;entryX=0;entryY=0.5;entryDx=0;entryDy=0;" parent="1" source="wDk5EvSkdMVQl-0X2oP3-15" target="wDk5EvSkdMVQl-0X2oP3-18" edge="1">
          <mxGeometry width="50" height="50" relative="1" as="geometry">
            <mxPoint x="110" y="380" as="sourcePoint" />
            <mxPoint x="600" y="277" as="targetPoint" />
          </mxGeometry>
        </mxCell>
        <mxCell id="wDk5EvSkdMVQl-0X2oP3-93" value="" style="endArrow=none;html=1;rounded=0;exitX=1;exitY=0.5;exitDx=0;exitDy=0;entryX=0;entryY=0.5;entryDx=0;entryDy=0;" parent="1" source="wDk5EvSkdMVQl-0X2oP3-8" target="wDk5EvSkdMVQl-0X2oP3-18" edge="1">
          <mxGeometry width="50" height="50" relative="1" as="geometry">
            <mxPoint x="220" y="380" as="sourcePoint" />
            <mxPoint x="600" y="277" as="targetPoint" />
          </mxGeometry>
        </mxCell>
        <mxCell id="wDk5EvSkdMVQl-0X2oP3-94" value="" style="endArrow=none;html=1;rounded=0;exitX=1;exitY=0.5;exitDx=0;exitDy=0;entryX=0;entryY=0.5;entryDx=0;entryDy=0;" parent="1" source="wDk5EvSkdMVQl-0X2oP3-9" target="wDk5EvSkdMVQl-0X2oP3-18" edge="1">
          <mxGeometry width="50" height="50" relative="1" as="geometry">
            <mxPoint x="330" y="380" as="sourcePoint" />
            <mxPoint x="600" y="277" as="targetPoint" />
          </mxGeometry>
        </mxCell>
        <mxCell id="wDk5EvSkdMVQl-0X2oP3-95" value="" style="endArrow=none;html=1;rounded=0;exitX=1;exitY=0.5;exitDx=0;exitDy=0;entryX=0;entryY=0.5;entryDx=0;entryDy=0;" parent="1" source="wDk5EvSkdMVQl-0X2oP3-10" target="wDk5EvSkdMVQl-0X2oP3-18" edge="1">
          <mxGeometry width="50" height="50" relative="1" as="geometry">
            <mxPoint x="440" y="380" as="sourcePoint" />
            <mxPoint x="600" y="277" as="targetPoint" />
          </mxGeometry>
        </mxCell>
        <mxCell id="wDk5EvSkdMVQl-0X2oP3-96" value="" style="endArrow=none;html=1;rounded=0;exitX=1;exitY=0.5;exitDx=0;exitDy=0;entryX=0;entryY=0.5;entryDx=0;entryDy=0;" parent="1" source="wDk5EvSkdMVQl-0X2oP3-11" target="wDk5EvSkdMVQl-0X2oP3-18" edge="1">
          <mxGeometry width="50" height="50" relative="1" as="geometry">
            <mxPoint x="550" y="380" as="sourcePoint" />
            <mxPoint x="600" y="277" as="targetPoint" />
          </mxGeometry>
        </mxCell>
        <mxCell id="wDk5EvSkdMVQl-0X2oP3-97" value="" style="endArrow=none;html=1;rounded=0;exitX=1;exitY=0.5;exitDx=0;exitDy=0;entryX=0;entryY=0.5;entryDx=0;entryDy=0;" parent="1" source="wDk5EvSkdMVQl-0X2oP3-12" target="wDk5EvSkdMVQl-0X2oP3-18" edge="1">
          <mxGeometry width="50" height="50" relative="1" as="geometry">
            <mxPoint x="660" y="380" as="sourcePoint" />
            <mxPoint x="600" y="277" as="targetPoint" />
          </mxGeometry>
        </mxCell>
        <mxCell id="wDk5EvSkdMVQl-0X2oP3-98" value="" style="endArrow=none;html=1;rounded=0;exitX=1;exitY=0.5;exitDx=0;exitDy=0;entryX=0;entryY=0.5;entryDx=0;entryDy=0;" parent="1" source="wDk5EvSkdMVQl-0X2oP3-13" target="wDk5EvSkdMVQl-0X2oP3-18" edge="1">
          <mxGeometry width="50" height="50" relative="1" as="geometry">
            <mxPoint x="770" y="380" as="sourcePoint" />
            <mxPoint x="600" y="277" as="targetPoint" />
          </mxGeometry>
        </mxCell>
        <mxCell id="wDk5EvSkdMVQl-0X2oP3-99" value="&lt;font style=&quot;font-size: 22px;&quot;&gt;Input layer&lt;/font&gt;" style="text;html=1;align=center;verticalAlign=middle;whiteSpace=wrap;rounded=0;fontFamily=Times New Roman;" parent="1" vertex="1">
          <mxGeometry x="950" y="585" width="120" height="30" as="geometry" />
        </mxCell>
        <mxCell id="wDk5EvSkdMVQl-0X2oP3-100" value="&lt;font style=&quot;font-size: 22px;&quot;&gt;Hidden layer&lt;/font&gt;" style="text;html=1;align=center;verticalAlign=middle;whiteSpace=wrap;rounded=0;fontFamily=Times New Roman;" parent="1" vertex="1">
          <mxGeometry x="950" y="395" width="120" height="30" as="geometry" />
        </mxCell>
        <mxCell id="wDk5EvSkdMVQl-0X2oP3-101" value="&lt;font style=&quot;font-size: 22px;&quot;&gt;Output layer&lt;/font&gt;" style="text;html=1;align=center;verticalAlign=middle;whiteSpace=wrap;rounded=0;fontFamily=Times New Roman;" parent="1" vertex="1">
          <mxGeometry x="950" y="212" width="120" height="30" as="geometry" />
        </mxCell>
      </root>
    </mxGraphModel>
  </diagram>
</mxfile>
